<mxfile host="app.diagrams.net" modified="2021-04-27T09:25:34.733Z" agent="5.0 (Windows NT 10.0; Win64; x64) AppleWebKit/537.36 (KHTML, like Gecko) Chrome/90.0.4430.85 Safari/537.36" etag="90WhcyqDOJINzVn2evPR" version="14.6.6" type="github">
  <diagram id="HVR1q25q1NyeJ6uo9skz" name="第 1 页">
    <mxGraphModel dx="1502" dy="675" grid="1" gridSize="10" guides="1" tooltips="1" connect="1" arrows="1" fold="1" page="1" pageScale="1" pageWidth="827" pageHeight="1169" math="0" shadow="0">
      <root>
        <mxCell id="0" />
        <mxCell id="1" parent="0" />
        <mxCell id="NUaOaMGFeI9euU4N0lMe-10" value="" style="rounded=0;whiteSpace=wrap;html=1;fontSize=12;strokeWidth=2;fillColor=#e51400;strokeColor=#B20000;fontColor=#ffffff;" vertex="1" parent="1">
          <mxGeometry x="195" y="132.5" width="170" height="315" as="geometry" />
        </mxCell>
        <mxCell id="NUaOaMGFeI9euU4N0lMe-3" value="getBean(X)" style="rounded=1;whiteSpace=wrap;html=1;fontSize=12;fontStyle=1" vertex="1" parent="1">
          <mxGeometry x="205" y="150" width="150" height="30" as="geometry" />
        </mxCell>
        <mxCell id="NUaOaMGFeI9euU4N0lMe-35" style="edgeStyle=orthogonalEdgeStyle;rounded=0;orthogonalLoop=1;jettySize=auto;html=1;fontSize=12;" edge="1" parent="1" source="NUaOaMGFeI9euU4N0lMe-4" target="NUaOaMGFeI9euU4N0lMe-29">
          <mxGeometry relative="1" as="geometry" />
        </mxCell>
        <mxCell id="NUaOaMGFeI9euU4N0lMe-4" value="doCreateBean(X)" style="rounded=1;whiteSpace=wrap;html=1;fontSize=12;fontStyle=1" vertex="1" parent="1">
          <mxGeometry x="205" y="190" width="150" height="30" as="geometry" />
        </mxCell>
        <mxCell id="NUaOaMGFeI9euU4N0lMe-5" value="populateBean(y)" style="rounded=1;whiteSpace=wrap;html=1;fontSize=12;fontStyle=1" vertex="1" parent="1">
          <mxGeometry x="205" y="230" width="150" height="30" as="geometry" />
        </mxCell>
        <mxCell id="NUaOaMGFeI9euU4N0lMe-6" value="resloveDependency" style="rounded=1;whiteSpace=wrap;html=1;fontSize=12;fontStyle=1" vertex="1" parent="1">
          <mxGeometry x="205" y="275" width="150" height="30" as="geometry" />
        </mxCell>
        <mxCell id="NUaOaMGFeI9euU4N0lMe-7" value="doResloveDependency" style="rounded=1;whiteSpace=wrap;html=1;fontSize=12;fontStyle=1" vertex="1" parent="1">
          <mxGeometry x="205" y="320" width="150" height="30" as="geometry" />
        </mxCell>
        <mxCell id="NUaOaMGFeI9euU4N0lMe-8" value="resolveCandidate" style="rounded=1;whiteSpace=wrap;html=1;fontSize=12;fontStyle=1" vertex="1" parent="1">
          <mxGeometry x="205" y="360" width="150" height="30" as="geometry" />
        </mxCell>
        <mxCell id="NUaOaMGFeI9euU4N0lMe-9" value="getBean(X)" style="rounded=1;whiteSpace=wrap;html=1;fontSize=12;fontStyle=1" vertex="1" parent="1">
          <mxGeometry x="205" y="400" width="150" height="30" as="geometry" />
        </mxCell>
        <mxCell id="NUaOaMGFeI9euU4N0lMe-11" value="" style="rounded=0;whiteSpace=wrap;html=1;fontSize=12;strokeWidth=2;fillColor=#6d8764;strokeColor=#3A5431;fontColor=#ffffff;" vertex="1" parent="1">
          <mxGeometry x="510" y="132.5" width="170" height="315" as="geometry" />
        </mxCell>
        <mxCell id="NUaOaMGFeI9euU4N0lMe-12" value="getBean(Y)" style="rounded=1;whiteSpace=wrap;html=1;fontSize=12;fontStyle=1" vertex="1" parent="1">
          <mxGeometry x="520" y="150" width="150" height="30" as="geometry" />
        </mxCell>
        <mxCell id="NUaOaMGFeI9euU4N0lMe-13" value="doCreateBean(Y)" style="rounded=1;whiteSpace=wrap;html=1;fontSize=12;fontStyle=1" vertex="1" parent="1">
          <mxGeometry x="520" y="190" width="150" height="30" as="geometry" />
        </mxCell>
        <mxCell id="NUaOaMGFeI9euU4N0lMe-14" value="populateBean(x)" style="rounded=1;whiteSpace=wrap;html=1;fontSize=12;fontStyle=1" vertex="1" parent="1">
          <mxGeometry x="520" y="230" width="150" height="30" as="geometry" />
        </mxCell>
        <mxCell id="NUaOaMGFeI9euU4N0lMe-15" value="resloveDependency" style="rounded=1;whiteSpace=wrap;html=1;fontSize=12;fontStyle=1" vertex="1" parent="1">
          <mxGeometry x="520" y="275" width="150" height="30" as="geometry" />
        </mxCell>
        <mxCell id="NUaOaMGFeI9euU4N0lMe-16" value="doResloveDependency" style="rounded=1;whiteSpace=wrap;html=1;fontSize=12;fontStyle=1" vertex="1" parent="1">
          <mxGeometry x="520" y="320" width="150" height="30" as="geometry" />
        </mxCell>
        <mxCell id="NUaOaMGFeI9euU4N0lMe-41" style="rounded=0;orthogonalLoop=1;jettySize=auto;html=1;entryX=1;entryY=0.5;entryDx=0;entryDy=0;fontSize=12;fillColor=#6d8764;strokeColor=#3A5431;strokeWidth=2;dashed=1;" edge="1" parent="1" source="NUaOaMGFeI9euU4N0lMe-17" target="NUaOaMGFeI9euU4N0lMe-9">
          <mxGeometry relative="1" as="geometry" />
        </mxCell>
        <mxCell id="NUaOaMGFeI9euU4N0lMe-17" value="resolveCandidate" style="rounded=1;whiteSpace=wrap;html=1;fontSize=12;fontStyle=1" vertex="1" parent="1">
          <mxGeometry x="520" y="360" width="150" height="30" as="geometry" />
        </mxCell>
        <mxCell id="NUaOaMGFeI9euU4N0lMe-18" value="getBean()" style="rounded=1;whiteSpace=wrap;html=1;fontSize=12;fontStyle=1" vertex="1" parent="1">
          <mxGeometry x="520" y="400" width="150" height="30" as="geometry" />
        </mxCell>
        <mxCell id="NUaOaMGFeI9euU4N0lMe-19" style="orthogonalLoop=1;jettySize=auto;html=1;entryX=0;entryY=0.5;entryDx=0;entryDy=0;fontSize=12;exitX=1;exitY=0.5;exitDx=0;exitDy=0;fillColor=#e51400;strokeColor=#B20000;strokeWidth=2;dashed=1;" edge="1" parent="1" source="NUaOaMGFeI9euU4N0lMe-8" target="NUaOaMGFeI9euU4N0lMe-12">
          <mxGeometry relative="1" as="geometry" />
        </mxCell>
        <mxCell id="NUaOaMGFeI9euU4N0lMe-20" value="" style="rounded=0;whiteSpace=wrap;html=1;fontSize=12;strokeWidth=2;" vertex="1" parent="1">
          <mxGeometry x="380" y="520" width="120" height="80" as="geometry" />
        </mxCell>
        <mxCell id="NUaOaMGFeI9euU4N0lMe-21" value="singletonsCurrentlyInCreation" style="text;html=1;align=center;verticalAlign=middle;resizable=0;points=[];autosize=1;strokeColor=none;fontSize=12;fontStyle=1" vertex="1" parent="1">
          <mxGeometry x="345" y="490" width="190" height="20" as="geometry" />
        </mxCell>
        <mxCell id="NUaOaMGFeI9euU4N0lMe-22" value="X" style="rounded=1;whiteSpace=wrap;html=1;fontSize=12;strokeWidth=2;fillColor=#e51400;strokeColor=#B20000;fontColor=#ffffff;" vertex="1" parent="1">
          <mxGeometry x="400" y="530" width="80" height="20" as="geometry" />
        </mxCell>
        <mxCell id="NUaOaMGFeI9euU4N0lMe-24" value="Y" style="rounded=1;whiteSpace=wrap;html=1;fontSize=12;strokeWidth=2;fillColor=#6d8764;strokeColor=#3A5431;fontColor=#ffffff;" vertex="1" parent="1">
          <mxGeometry x="400" y="565" width="80" height="20" as="geometry" />
        </mxCell>
        <mxCell id="NUaOaMGFeI9euU4N0lMe-25" value="" style="rounded=0;whiteSpace=wrap;html=1;fontSize=12;strokeWidth=2;" vertex="1" parent="1">
          <mxGeometry x="380" y="660" width="120" height="80" as="geometry" />
        </mxCell>
        <mxCell id="NUaOaMGFeI9euU4N0lMe-26" value="singletonFactories" style="text;html=1;align=center;verticalAlign=middle;resizable=0;points=[];autosize=1;strokeColor=none;fontSize=12;fontStyle=1" vertex="1" parent="1">
          <mxGeometry x="380" y="630" width="120" height="20" as="geometry" />
        </mxCell>
        <mxCell id="NUaOaMGFeI9euU4N0lMe-27" value="X" style="rounded=1;whiteSpace=wrap;html=1;fontSize=12;strokeWidth=2;fillColor=#e51400;strokeColor=#B20000;fontColor=#ffffff;" vertex="1" parent="1">
          <mxGeometry x="400" y="670" width="80" height="20" as="geometry" />
        </mxCell>
        <mxCell id="NUaOaMGFeI9euU4N0lMe-28" value="Y" style="rounded=1;whiteSpace=wrap;html=1;fontSize=12;strokeWidth=2;fillColor=#6d8764;strokeColor=#3A5431;fontColor=#ffffff;" vertex="1" parent="1">
          <mxGeometry x="400" y="705" width="80" height="20" as="geometry" />
        </mxCell>
        <mxCell id="NUaOaMGFeI9euU4N0lMe-29" value="通过构造方法反射new对象" style="shape=note;whiteSpace=wrap;html=1;backgroundOutline=1;darkOpacity=0.05;fontSize=12;strokeWidth=2;" vertex="1" parent="1">
          <mxGeometry x="380" y="160" width="60" height="90" as="geometry" />
        </mxCell>
        <mxCell id="NUaOaMGFeI9euU4N0lMe-37" style="edgeStyle=orthogonalEdgeStyle;rounded=0;orthogonalLoop=1;jettySize=auto;html=1;entryX=0;entryY=0.5;entryDx=0;entryDy=0;fontSize=12;fillColor=#e51400;strokeColor=#B20000;strokeWidth=2;" edge="1" parent="1" source="NUaOaMGFeI9euU4N0lMe-4" target="NUaOaMGFeI9euU4N0lMe-22">
          <mxGeometry relative="1" as="geometry">
            <Array as="points">
              <mxPoint x="150" y="205" />
              <mxPoint x="150" y="540" />
            </Array>
          </mxGeometry>
        </mxCell>
        <mxCell id="NUaOaMGFeI9euU4N0lMe-39" value="add" style="edgeLabel;html=1;align=center;verticalAlign=middle;resizable=0;points=[];fontSize=12;" vertex="1" connectable="0" parent="NUaOaMGFeI9euU4N0lMe-37">
          <mxGeometry x="-0.2019" y="-1" relative="1" as="geometry">
            <mxPoint as="offset" />
          </mxGeometry>
        </mxCell>
        <mxCell id="NUaOaMGFeI9euU4N0lMe-38" style="edgeStyle=orthogonalEdgeStyle;rounded=0;orthogonalLoop=1;jettySize=auto;html=1;entryX=1;entryY=0.5;entryDx=0;entryDy=0;fontSize=12;fillColor=#6d8764;strokeColor=#3A5431;strokeWidth=2;" edge="1" parent="1" source="NUaOaMGFeI9euU4N0lMe-13" target="NUaOaMGFeI9euU4N0lMe-24">
          <mxGeometry relative="1" as="geometry">
            <Array as="points">
              <mxPoint x="730" y="205" />
              <mxPoint x="730" y="575" />
            </Array>
          </mxGeometry>
        </mxCell>
        <mxCell id="NUaOaMGFeI9euU4N0lMe-40" value="add" style="edgeLabel;html=1;align=center;verticalAlign=middle;resizable=0;points=[];fontSize=12;" vertex="1" connectable="0" parent="NUaOaMGFeI9euU4N0lMe-38">
          <mxGeometry x="-0.1903" y="1" relative="1" as="geometry">
            <mxPoint as="offset" />
          </mxGeometry>
        </mxCell>
        <mxCell id="NUaOaMGFeI9euU4N0lMe-42" style="edgeStyle=orthogonalEdgeStyle;rounded=0;orthogonalLoop=1;jettySize=auto;html=1;entryX=0;entryY=0.5;entryDx=0;entryDy=0;fontSize=12;strokeWidth=2;fillColor=#e51400;strokeColor=#B20000;" edge="1" parent="1" target="NUaOaMGFeI9euU4N0lMe-27">
          <mxGeometry relative="1" as="geometry">
            <mxPoint x="250" y="540" as="sourcePoint" />
            <Array as="points">
              <mxPoint x="250" y="680" />
            </Array>
          </mxGeometry>
        </mxCell>
        <mxCell id="NUaOaMGFeI9euU4N0lMe-43" style="edgeStyle=orthogonalEdgeStyle;rounded=0;orthogonalLoop=1;jettySize=auto;html=1;entryX=1;entryY=0.5;entryDx=0;entryDy=0;fontSize=12;strokeWidth=2;fillColor=#6d8764;strokeColor=#3A5431;" edge="1" parent="1" target="NUaOaMGFeI9euU4N0lMe-28">
          <mxGeometry relative="1" as="geometry">
            <mxPoint x="630" y="570" as="sourcePoint" />
            <Array as="points">
              <mxPoint x="630" y="715" />
            </Array>
          </mxGeometry>
        </mxCell>
        <mxCell id="NUaOaMGFeI9euU4N0lMe-44" value="addSingletonFactory" style="text;html=1;align=center;verticalAlign=middle;resizable=0;points=[];autosize=1;strokeColor=none;fontSize=12;" vertex="1" parent="1">
          <mxGeometry x="150" y="680" width="130" height="20" as="geometry" />
        </mxCell>
        <mxCell id="NUaOaMGFeI9euU4N0lMe-45" value="addSingletonFactory" style="text;html=1;align=center;verticalAlign=middle;resizable=0;points=[];autosize=1;strokeColor=none;fontSize=12;" vertex="1" parent="1">
          <mxGeometry x="570" y="725" width="130" height="20" as="geometry" />
        </mxCell>
      </root>
    </mxGraphModel>
  </diagram>
</mxfile>
